<mxfile host="app.diagrams.net" modified="2024-04-06T01:56:58.620Z" agent="Mozilla/5.0 (Windows NT 10.0; Win64; x64) AppleWebKit/537.36 (KHTML, like Gecko) Chrome/123.0.0.0 Safari/537.36 Edg/123.0.0.0" version="24.2.1" etag="WGEJ8Ly040IURn3UO31M" type="github">
  <diagram name="第 1 页" id="Ym5PA6LfhvZpyoDTt8RO">
    <mxGraphModel>
      <root>
        <mxCell id="0" />
        <mxCell id="1" parent="0" />
      </root>
    </mxGraphModel>
  </diagram>
</mxfile>
